<svg width="1600" height="560" viewBox="0 0 1600 560" fill="none" xmlns="http://www.w3.org/2000/svg">
  <defs>
    <linearGradient id="bg" x1="80" y1="30" x2="1510" y2="560" gradientUnits="userSpaceOnUse">
      <stop stop-color="#08111F"/>
      <stop offset="0.48" stop-color="#101A32"/>
      <stop offset="1" stop-color="#15102B"/>
    </linearGradient>
    <radialGradient id="glowA" cx="0" cy="0" r="1" gradientUnits="userSpaceOnUse" gradientTransform="translate(315 280) rotate(21) scale(380 300)">
      <stop stop-color="#4FD1FF" stop-opacity="0.22"/>
      <stop offset="1" stop-color="#4FD1FF" stop-opacity="0"/>
    </radialGradient>
    <radialGradient id="glowB" cx="0" cy="0" r="1" gradientUnits="userSpaceOnUse" gradientTransform="translate(1280 140) rotate(148) scale(430 310)">
      <stop stop-color="#9A7CFF" stop-opacity="0.23"/>
      <stop offset="1" stop-color="#9A7CFF" stop-opacity="0"/>
    </radialGradient>
    <linearGradient id="accent" x1="0" y1="0" x2="1" y2="1">
      <stop stop-color="#52D6FF"/>
      <stop offset="0.52" stop-color="#6D9BFF"/>
      <stop offset="1" stop-color="#A47CFF"/>
    </linearGradient>
    <linearGradient id="card" x1="0" y1="0" x2="1" y2="1">
      <stop stop-color="#FFFFFF" stop-opacity="0.10"/>
      <stop offset="1" stop-color="#FFFFFF" stop-opacity="0.035"/>
    </linearGradient>
    <filter id="shadow" x="-40%" y="-40%" width="180%" height="180%">
      <feDropShadow dx="0" dy="16" stdDeviation="20" flood-color="#000000" flood-opacity="0.38"/>
    </filter>
    <filter id="softGlow" x="-80%" y="-80%" width="260%" height="260%">
      <feGaussianBlur stdDeviation="13" result="blur"/>
      <feMerge><feMergeNode in="blur"/><feMergeNode in="SourceGraphic"/></feMerge>
    </filter>
    <pattern id="dots" width="34" height="34" patternUnits="userSpaceOnUse">
      <circle cx="1.5" cy="1.5" r="1.5" fill="#FFFFFF" fill-opacity="0.055"/>
    </pattern>
    <clipPath id="frameClip">
      <rect x="20" y="20" width="1560" height="520" rx="34"/>
    </clipPath>
  </defs>

  <g clip-path="url(#frameClip)">
    <rect x="20" y="20" width="1560" height="520" rx="34" fill="url(#bg)"/>
    <rect x="20" y="20" width="1560" height="520" rx="34" fill="url(#glowA)"/>
    <rect x="20" y="20" width="1560" height="520" rx="34" fill="url(#glowB)"/>
    <rect x="20" y="20" width="1560" height="520" rx="34" fill="url(#dots)"/>

    <!-- Decorative orbital paths -->
    <path d="M-40 454C210 316 334 486 584 344C834 202 944 258 1124 160C1304 62 1472 113 1660 15" stroke="url(#accent)" stroke-opacity="0.10" stroke-width="2"/>
    <path d="M-80 484C180 344 328 545 620 380C858 245 1050 346 1240 226C1430 106 1526 142 1684 54" stroke="#FFFFFF" stroke-opacity="0.05" stroke-width="1"/>

    <!-- Left research nucleus -->
    <g transform="translate(92 103)" filter="url(#shadow)">
      <rect x="0" y="0" width="310" height="354" rx="28" fill="#08101F" fill-opacity="0.68" stroke="#A6D9FF" stroke-opacity="0.17"/>
      <rect x="18" y="18" width="274" height="318" rx="22" fill="url(#card)" stroke="#FFFFFF" stroke-opacity="0.08"/>

      <text x="42" y="58" fill="#9BB3CB" font-family="Inter,Segoe UI,Arial,sans-serif" font-size="14" font-weight="700" letter-spacing="2.4">RESEARCH WORKSPACE</text>
      <circle cx="155" cy="176" r="63" fill="#14213D" stroke="url(#accent)" stroke-width="2.5"/>
      <circle cx="155" cy="176" r="46" fill="#101A2F" stroke="#FFFFFF" stroke-opacity="0.12"/>
      <circle cx="155" cy="176" r="26" fill="url(#accent)" fill-opacity="0.95" filter="url(#softGlow)"/>
      <circle cx="155" cy="176" r="8" fill="#F4FBFF"/>

      <path d="M155 113L102 82M155 113L210 81M92 177L48 177M218 176L264 176M155 239L107 275M155 239L211 274" stroke="#90CBFF" stroke-opacity="0.62" stroke-width="2"/>
      <circle cx="102" cy="82" r="12" fill="#0F1A30" stroke="#65D7FF" stroke-width="2"/>
      <circle cx="210" cy="81" r="12" fill="#0F1A30" stroke="#8D9DFF" stroke-width="2"/>
      <circle cx="48" cy="177" r="12" fill="#0F1A30" stroke="#65D7FF" stroke-width="2"/>
      <circle cx="264" cy="176" r="12" fill="#0F1A30" stroke="#AB7DFF" stroke-width="2"/>
      <circle cx="107" cy="275" r="12" fill="#0F1A30" stroke="#79BCFF" stroke-width="2"/>
      <circle cx="211" cy="274" r="12" fill="#0F1A30" stroke="#9A83FF" stroke-width="2"/>

      <text x="155" y="319" text-anchor="middle" fill="#EAF6FF" font-family="Inter,Segoe UI,Arial,sans-serif" font-size="15" font-weight="700">Human remains the PI</text>
    </g>

    <!-- Main title -->
    <g transform="translate(455 118)">
      <text x="0" y="36" fill="#7EDFFF" font-family="Inter,Segoe UI,Arial,sans-serif" font-size="17" font-weight="800" letter-spacing="4.4">AI RESEARCH OPERATING SYSTEM</text>
      <text x="0" y="112" fill="#F5FAFF" font-family="Inter,Segoe UI,Arial,sans-serif" font-size="64" font-weight="760" letter-spacing="-2.2">Any Science</text>
      <text x="0" y="176" fill="url(#accent)" font-family="Inter,Segoe UI,Arial,sans-serif" font-size="64" font-weight="760" letter-spacing="-2.2">Framework</text>
      <text x="2" y="224" fill="#B8C8DA" font-family="Inter,Segoe UI,Arial,sans-serif" font-size="21" font-weight="450">Turn AI-assisted research into a structured, reviewable,</text>
      <text x="2" y="254" fill="#B8C8DA" font-family="Inter,Segoe UI,Arial,sans-serif" font-size="21" font-weight="450">and reproducible workflow.</text>

      <g transform="translate(0 286)">
        <rect x="0" y="0" width="148" height="38" rx="19" fill="#52D6FF" fill-opacity="0.10" stroke="#52D6FF" stroke-opacity="0.35"/>
        <circle cx="22" cy="19" r="5" fill="#52D6FF"/>
        <text x="37" y="25" fill="#DFF8FF" font-family="Inter,Segoe UI,Arial,sans-serif" font-size="15" font-weight="700">Structured</text>
        <rect x="162" y="0" width="148" height="38" rx="19" fill="#7797FF" fill-opacity="0.10" stroke="#7797FF" stroke-opacity="0.35"/>
        <circle cx="184" cy="19" r="5" fill="#7797FF"/>
        <text x="199" y="25" fill="#E8EBFF" font-family="Inter,Segoe UI,Arial,sans-serif" font-size="15" font-weight="700">Reviewable</text>
        <rect x="324" y="0" width="162" height="38" rx="19" fill="#A47CFF" fill-opacity="0.10" stroke="#A47CFF" stroke-opacity="0.35"/>
        <circle cx="346" cy="19" r="5" fill="#A47CFF"/>
        <text x="361" y="25" fill="#F0E8FF" font-family="Inter,Segoe UI,Arial,sans-serif" font-size="15" font-weight="700">Reproducible</text>
      </g>
    </g>

    <!-- Right workflow stack -->
    <g transform="translate(1135 92)" filter="url(#shadow)">
      <path d="M80 78C152 16 268 28 311 109C348 179 317 257 241 296C166 334 77 306 47 236" stroke="url(#accent)" stroke-opacity="0.45" stroke-width="2.5" stroke-dasharray="7 9"/>
      <path d="M47 236L45 206L72 221" fill="none" stroke="#6FD3FF" stroke-width="2.5" stroke-linecap="round" stroke-linejoin="round"/>

      <g transform="translate(8 0)">
        <rect width="190" height="78" rx="18" fill="#101B32" stroke="#5ED8FF" stroke-opacity="0.44"/>
        <rect x="17" y="17" width="44" height="44" rx="12" fill="#52D6FF" fill-opacity="0.12"/>
        <path d="M31 41H47M39 33V49" stroke="#65DFFF" stroke-width="2.5" stroke-linecap="round"/>
        <text x="76" y="34" fill="#F2FAFF" font-family="Inter,Segoe UI,Arial,sans-serif" font-size="16" font-weight="750">Idea Card</text>
        <text x="76" y="55" fill="#8FA6BF" font-family="Inter,Segoe UI,Arial,sans-serif" font-size="12.5">Define the question</text>
      </g>

      <g transform="translate(150 91)">
        <rect width="210" height="78" rx="18" fill="#121B34" stroke="#8193FF" stroke-opacity="0.48"/>
        <rect x="17" y="17" width="44" height="44" rx="12" fill="#7C96FF" fill-opacity="0.12"/>
        <path d="M29 48L39 34L49 43L55 35" stroke="#91A6FF" stroke-width="2.5" stroke-linecap="round" stroke-linejoin="round"/>
        <text x="76" y="34" fill="#F3F5FF" font-family="Inter,Segoe UI,Arial,sans-serif" font-size="16" font-weight="750">Experiment</text>
        <text x="76" y="55" fill="#929FBE" font-family="Inter,Segoe UI,Arial,sans-serif" font-size="12.5">Plan &amp; execute</text>
      </g>

      <g transform="translate(106 202)">
        <rect width="210" height="78" rx="18" fill="#151A34" stroke="#A47CFF" stroke-opacity="0.48"/>
        <rect x="17" y="17" width="44" height="44" rx="12" fill="#A47CFF" fill-opacity="0.12"/>
        <path d="M29 39L37 47L51 31" stroke="#B89AFF" stroke-width="2.5" stroke-linecap="round" stroke-linejoin="round"/>
        <text x="76" y="34" fill="#F7F3FF" font-family="Inter,Segoe UI,Arial,sans-serif" font-size="16" font-weight="750">Review Gate</text>
        <text x="76" y="55" fill="#A09AB9" font-family="Inter,Segoe UI,Arial,sans-serif" font-size="12.5">Check evidence</text>
      </g>

      <g transform="translate(0 305)">
        <rect width="228" height="78" rx="18" fill="#101B31" stroke="#67CFFF" stroke-opacity="0.40"/>
        <rect x="17" y="17" width="44" height="44" rx="12" fill="#52D6FF" fill-opacity="0.11"/>
        <path d="M29 48V42M38 48V34M47 48V38M56 48V29" stroke="#73DFFF" stroke-width="2.5" stroke-linecap="round"/>
        <text x="76" y="34" fill="#F2FAFF" font-family="Inter,Segoe UI,Arial,sans-serif" font-size="16" font-weight="750">Evidence &amp; State</text>
        <text x="76" y="55" fill="#8FA6BF" font-family="Inter,Segoe UI,Arial,sans-serif" font-size="12.5">Persist the outcome</text>
      </g>
    </g>

    <!-- Bottom workflow rail -->
    <g transform="translate(455 475)">
      <text x="0" y="0" fill="#7F94AA" font-family="Inter,Segoe UI,Arial,sans-serif" font-size="12" font-weight="750" letter-spacing="1.7">IDEA</text>
      <line x1="52" y1="-5" x2="102" y2="-5" stroke="#4FD1FF" stroke-opacity="0.55" stroke-width="2"/>
      <circle cx="106" cy="-5" r="3" fill="#4FD1FF"/>
      <text x="126" y="0" fill="#7F94AA" font-family="Inter,Segoe UI,Arial,sans-serif" font-size="12" font-weight="750" letter-spacing="1.7">DESIGN</text>
      <line x1="202" y1="-5" x2="252" y2="-5" stroke="#699FFF" stroke-opacity="0.55" stroke-width="2"/>
      <circle cx="256" cy="-5" r="3" fill="#699FFF"/>
      <text x="276" y="0" fill="#7F94AA" font-family="Inter,Segoe UI,Arial,sans-serif" font-size="12" font-weight="750" letter-spacing="1.7">REVIEW</text>
      <line x1="350" y1="-5" x2="400" y2="-5" stroke="#858CFF" stroke-opacity="0.55" stroke-width="2"/>
      <circle cx="404" cy="-5" r="3" fill="#858CFF"/>
      <text x="424" y="0" fill="#7F94AA" font-family="Inter,Segoe UI,Arial,sans-serif" font-size="12" font-weight="750" letter-spacing="1.7">RUN</text>
      <line x1="464" y1="-5" x2="514" y2="-5" stroke="#9B81FF" stroke-opacity="0.55" stroke-width="2"/>
      <circle cx="518" cy="-5" r="3" fill="#9B81FF"/>
      <text x="538" y="0" fill="#7F94AA" font-family="Inter,Segoe UI,Arial,sans-serif" font-size="12" font-weight="750" letter-spacing="1.7">EVIDENCE</text>
      <line x1="624" y1="-5" x2="674" y2="-5" stroke="#A47CFF" stroke-opacity="0.55" stroke-width="2"/>
      <circle cx="678" cy="-5" r="3" fill="#A47CFF"/>
      <text x="698" y="0" fill="#7F94AA" font-family="Inter,Segoe UI,Arial,sans-serif" font-size="12" font-weight="750" letter-spacing="1.7">ITERATE</text>
    </g>
  </g>

  <rect x="20.75" y="20.75" width="1558.5" height="518.5" rx="33.25" stroke="#FFFFFF" stroke-opacity="0.11" stroke-width="1.5"/>
</svg>
